<svg width="163" height="73" viewBox="0 0 163 73" fill="none" xmlns="http://www.w3.org/2000/svg">
<rect x="0.5" y="0.5" width="9" height="9" stroke="#424C5B"/>
<rect x="9.5" y="0.5" width="9" height="9" stroke="#424C5B"/>
<rect x="18.5" y="0.5" width="9" height="9" stroke="#424C5B"/>
<rect x="27.5" y="0.5" width="9" height="9" stroke="#424C5B"/>
<rect x="36.5" y="0.5" width="9" height="9" stroke="#424C5B"/>
<rect x="45.5" y="0.5" width="9" height="9" stroke="#424C5B"/>
<rect x="54.5" y="0.5" width="9" height="9" stroke="#424C5B"/>
<rect x="63.5" y="0.5" width="9" height="9" stroke="#424C5B"/>
<rect x="72.5" y="0.5" width="9" height="9" stroke="#424C5B"/>
<rect x="81.5" y="0.5" width="9" height="9" stroke="#424C5B"/>
<rect x="90.5" y="0.5" width="9" height="9" stroke="#424C5B"/>
<rect x="99.5" y="0.5" width="9" height="9" stroke="#424C5B"/>
<rect x="108.5" y="0.5" width="9" height="9" stroke="#424C5B"/>
<rect x="117.5" y="0.5" width="9" height="9" stroke="#424C5B"/>
<rect x="126.5" y="0.5" width="9" height="9" stroke="#424C5B"/>
<rect x="135.5" y="0.5" width="9" height="9" stroke="#424C5B"/>
<rect x="144.5" y="0.5" width="9" height="9" stroke="#424C5B"/>
<rect x="153.5" y="0.5" width="9" height="9" stroke="#424C5B"/>
<rect x="0.5" y="36.5" width="9" height="9" stroke="#424C5B"/>
<rect x="9.5" y="36.5" width="9" height="9" stroke="#424C5B"/>
<rect x="18.5" y="36.5" width="9" height="9" stroke="#424C5B"/>
<rect x="27.5" y="36.5" width="9" height="9" stroke="#424C5B"/>
<rect x="36.5" y="36.5" width="9" height="9" stroke="#424C5B"/>
<rect x="45.5" y="36.5" width="9" height="9" stroke="#424C5B"/>
<rect x="54.5" y="36.5" width="9" height="9" stroke="#424C5B"/>
<rect x="63.5" y="36.5" width="9" height="9" stroke="#424C5B"/>
<rect x="72.5" y="36.5" width="9" height="9" stroke="#424C5B"/>
<rect x="81.5" y="36.5" width="9" height="9" stroke="#424C5B"/>
<rect x="90.5" y="36.5" width="9" height="9" stroke="#424C5B"/>
<rect x="99.5" y="36.5" width="9" height="9" stroke="#424C5B"/>
<rect x="108.5" y="36.5" width="9" height="9" stroke="#424C5B"/>
<rect x="117.5" y="36.5" width="9" height="9" stroke="#424C5B"/>
<rect x="126.5" y="36.5" width="9" height="9" stroke="#424C5B"/>
<rect x="135.5" y="36.5" width="9" height="9" stroke="#424C5B"/>
<rect x="144.5" y="36.5" width="9" height="9" stroke="#424C5B"/>
<rect x="153.5" y="36.5" width="9" height="9" stroke="#424C5B"/>
<rect x="0.5" y="9.5" width="9" height="9" stroke="#424C5B"/>
<rect x="9.5" y="9.5" width="9" height="9" stroke="#424C5B"/>
<rect x="18.5" y="9.5" width="9" height="9" stroke="#424C5B"/>
<rect x="27.5" y="9.5" width="9" height="9" stroke="#424C5B"/>
<rect x="36.5" y="9.5" width="9" height="9" stroke="#424C5B"/>
<rect x="45.5" y="9.5" width="9" height="9" stroke="#424C5B"/>
<rect x="54.5" y="9.5" width="9" height="9" stroke="#424C5B"/>
<rect x="63.5" y="9.5" width="9" height="9" stroke="#424C5B"/>
<rect x="72.5" y="9.5" width="9" height="9" stroke="#424C5B"/>
<rect x="81.5" y="9.5" width="9" height="9" stroke="#424C5B"/>
<rect x="90.5" y="9.5" width="9" height="9" stroke="#424C5B"/>
<rect x="99.5" y="9.5" width="9" height="9" stroke="#424C5B"/>
<rect x="108.5" y="9.5" width="9" height="9" stroke="#424C5B"/>
<rect x="117.5" y="9.5" width="9" height="9" stroke="#424C5B"/>
<rect x="126.5" y="9.5" width="9" height="9" stroke="#424C5B"/>
<rect x="135.5" y="9.5" width="9" height="9" stroke="#424C5B"/>
<rect x="144.5" y="9.5" width="9" height="9" stroke="#424C5B"/>
<rect x="153.5" y="9.5" width="9" height="9" stroke="#424C5B"/>
<rect x="0.5" y="45.5" width="9" height="9" stroke="#424C5B"/>
<rect x="9.5" y="45.5" width="9" height="9" stroke="#424C5B"/>
<rect x="18.5" y="45.5" width="9" height="9" stroke="#424C5B"/>
<rect x="27.5" y="45.5" width="9" height="9" stroke="#424C5B"/>
<rect x="36.5" y="45.5" width="9" height="9" stroke="#424C5B"/>
<rect x="45.5" y="45.5" width="9" height="9" stroke="#424C5B"/>
<rect x="54.5" y="45.5" width="9" height="9" stroke="#424C5B"/>
<rect x="63.5" y="45.5" width="9" height="9" stroke="#424C5B"/>
<rect x="72.5" y="45.5" width="9" height="9" stroke="#424C5B"/>
<rect x="81.5" y="45.5" width="9" height="9" stroke="#424C5B"/>
<rect x="90.5" y="45.5" width="9" height="9" stroke="#424C5B"/>
<rect x="99.5" y="45.5" width="9" height="9" stroke="#424C5B"/>
<rect x="108.5" y="45.5" width="9" height="9" stroke="#424C5B"/>
<rect x="117.5" y="45.5" width="9" height="9" stroke="#424C5B"/>
<rect x="126.5" y="45.5" width="9" height="9" stroke="#424C5B"/>
<rect x="135.5" y="45.5" width="9" height="9" stroke="#424C5B"/>
<rect x="144.5" y="45.5" width="9" height="9" stroke="#424C5B"/>
<rect x="153.5" y="45.5" width="9" height="9" stroke="#424C5B"/>
<rect x="0.5" y="18.5" width="9" height="9" stroke="#424C5B"/>
<rect x="9.5" y="18.5" width="9" height="9" stroke="#424C5B"/>
<rect x="18.5" y="18.5" width="9" height="9" stroke="#424C5B"/>
<rect x="27.5" y="18.5" width="9" height="9" stroke="#424C5B"/>
<rect x="36.5" y="18.5" width="9" height="9" stroke="#424C5B"/>
<rect x="45.5" y="18.5" width="9" height="9" stroke="#424C5B"/>
<rect x="54.5" y="18.5" width="9" height="9" stroke="#424C5B"/>
<rect x="63.5" y="18.5" width="9" height="9" stroke="#424C5B"/>
<rect x="72.5" y="18.5" width="9" height="9" stroke="#424C5B"/>
<rect x="81.5" y="18.5" width="9" height="9" stroke="#424C5B"/>
<rect x="90.5" y="18.5" width="9" height="9" stroke="#424C5B"/>
<rect x="99.5" y="18.5" width="9" height="9" stroke="#424C5B"/>
<rect x="108.5" y="18.5" width="9" height="9" stroke="#424C5B"/>
<rect x="117.5" y="18.5" width="9" height="9" stroke="#424C5B"/>
<rect x="126.5" y="18.5" width="9" height="9" stroke="#424C5B"/>
<rect x="135.5" y="18.5" width="9" height="9" stroke="#424C5B"/>
<rect x="144.5" y="18.5" width="9" height="9" stroke="#424C5B"/>
<rect x="153.5" y="18.5" width="9" height="9" stroke="#424C5B"/>
<rect x="0.5" y="54.5" width="9" height="9" stroke="#424C5B"/>
<rect x="9.5" y="54.5" width="9" height="9" stroke="#424C5B"/>
<rect x="18.5" y="54.5" width="9" height="9" stroke="#424C5B"/>
<rect x="27.5" y="54.5" width="9" height="9" stroke="#424C5B"/>
<rect x="36.5" y="54.5" width="9" height="9" stroke="#424C5B"/>
<rect x="45.5" y="54.5" width="9" height="9" stroke="#424C5B"/>
<rect x="54.5" y="54.5" width="9" height="9" stroke="#424C5B"/>
<rect x="63.5" y="54.5" width="9" height="9" stroke="#424C5B"/>
<rect x="72.5" y="54.5" width="9" height="9" stroke="#424C5B"/>
<rect x="81.5" y="54.5" width="9" height="9" stroke="#424C5B"/>
<rect x="90.5" y="54.5" width="9" height="9" stroke="#424C5B"/>
<rect x="99.5" y="54.5" width="9" height="9" stroke="#424C5B"/>
<rect x="108.5" y="54.5" width="9" height="9" stroke="#424C5B"/>
<rect x="117.5" y="54.5" width="9" height="9" stroke="#424C5B"/>
<rect x="126.5" y="54.5" width="9" height="9" stroke="#424C5B"/>
<rect x="135.5" y="54.5" width="9" height="9" stroke="#424C5B"/>
<rect x="144.5" y="54.5" width="9" height="9" stroke="#424C5B"/>
<rect x="153.5" y="54.5" width="9" height="9" stroke="#424C5B"/>
<rect x="0.5" y="27.5" width="9" height="9" stroke="#424C5B"/>
<rect x="9.5" y="27.5" width="9" height="9" stroke="#424C5B"/>
<rect x="18.5" y="27.5" width="9" height="9" stroke="#424C5B"/>
<rect x="27.5" y="27.5" width="9" height="9" stroke="#424C5B"/>
<rect x="36.5" y="27.5" width="9" height="9" stroke="#424C5B"/>
<rect x="45.5" y="27.5" width="9" height="9" stroke="#424C5B"/>
<rect x="54.5" y="27.5" width="9" height="9" stroke="#424C5B"/>
<rect x="63.5" y="27.5" width="9" height="9" stroke="#424C5B"/>
<rect x="72.5" y="27.5" width="9" height="9" stroke="#424C5B"/>
<rect x="81.5" y="27.5" width="9" height="9" stroke="#424C5B"/>
<rect x="90.5" y="27.5" width="9" height="9" stroke="#424C5B"/>
<rect x="99.5" y="27.5" width="9" height="9" stroke="#424C5B"/>
<rect x="108.5" y="27.5" width="9" height="9" stroke="#424C5B"/>
<rect x="117.5" y="27.5" width="9" height="9" stroke="#424C5B"/>
<rect x="126.5" y="27.5" width="9" height="9" stroke="#424C5B"/>
<rect x="135.5" y="27.5" width="9" height="9" stroke="#424C5B"/>
<rect x="144.5" y="27.5" width="9" height="9" stroke="#424C5B"/>
<rect x="153.5" y="27.5" width="9" height="9" stroke="#424C5B"/>
<rect x="0.5" y="63.5" width="9" height="9" stroke="#424C5B"/>
<rect x="9.5" y="63.5" width="9" height="9" stroke="#424C5B"/>
<rect x="18.5" y="63.5" width="9" height="9" stroke="#424C5B"/>
<rect x="27.5" y="63.5" width="9" height="9" stroke="#424C5B"/>
<rect x="36.5" y="63.5" width="9" height="9" stroke="#424C5B"/>
<rect x="45.5" y="63.5" width="9" height="9" stroke="#424C5B"/>
<rect x="54.5" y="63.5" width="9" height="9" stroke="#424C5B"/>
<rect x="63.5" y="63.5" width="9" height="9" stroke="#424C5B"/>
<rect x="72.5" y="63.5" width="9" height="9" stroke="#424C5B"/>
<rect x="81.5" y="63.5" width="9" height="9" stroke="#424C5B"/>
<rect x="90.5" y="63.5" width="9" height="9" stroke="#424C5B"/>
<rect x="99.5" y="63.5" width="9" height="9" stroke="#424C5B"/>
<rect x="108.5" y="63.5" width="9" height="9" stroke="#424C5B"/>
<rect x="117.5" y="63.5" width="9" height="9" stroke="#424C5B"/>
<rect x="126.5" y="63.5" width="9" height="9" stroke="#424C5B"/>
<rect x="135.5" y="63.5" width="9" height="9" stroke="#424C5B"/>
<rect x="144.5" y="63.5" width="9" height="9" stroke="#424C5B"/>
<rect x="153.5" y="63.5" width="9" height="9" stroke="#424C5B"/>
</svg>
